# xmcd
#
# Track frame offsets:
#	150
#	16754
#	29354
#	49331
#	63670
#	79175
#	92937
#	107323
#	122972
#	145044
#	156775
#	174641
#	203963
#	220774
#	233026
#	250075
#	269574
#
# Disc length: 3757
#
# Revision: 1
# Processed by: cddbd v1.5.1PL0 Copyright (c) Steve Scherf et al.
# Submitted via: CDex 1.51
# Normalized: r0:TDELIM( - )
#
DISCID=ed0eab11
DTITLE=Aladar Mozi and Danica Moziova - Romantic Miniatures
DYEAR=1900
DGENRE=Blues
TTITLE0=F.M.Veracini - Largo
TTITLE1=J.Brahms - Waltz in A Major Op.39 No.15
TTITLE2=J.Massenet - Meditation from Thais
TTITLE3=R.Schumann - Dreming
TTITLE4=F.Schubert - Serenade
TTITLE5=P.I.Tchaikovsky - Melody
TTITLE6=F.Kreisler - The Sorrow of Love
TTITLE7=A.Dvorak - Humoresque, Op.107 No.7
TTITLE8=J.Suk - Violin solo from Radux and Mahulena
TTITLE9=M.Ravel - Piece en forme de habanera
TTITLE10=C.Debussy - The Moonshine
TTITLE11=H.Wieniawski - Capriccio-Valse Op.7
TTITLE12=H.Wieniawski - Mazurka, Op.19, No.1
TTITLE13=Ch.W.Gluck - Melody
TTITLE14=C.Debussy - In The Boat
TTITLE15=W.A.Mozart - Minuet in D Major
TTITLE16=J.S.Bach - Ch.F.Gounod - Ave Maria
EXTD=
EXTT0=
EXTT1=
EXTT2=
EXTT3=
EXTT4=
EXTT5=
EXTT6=
EXTT7=
EXTT8=
EXTT9=
EXTT10=
EXTT11=
EXTT12=
EXTT13=
EXTT14=
EXTT15=
EXTT16=
PLAYORDER=
